<?xml version="1.0" encoding="UTF-8"?>
<svg xmlns="http://www.w3.org/2000/svg" xmlns:xlink="http://www.w3.org/1999/xlink" width="4001"
    height="2666" viewBox="0 0 4001 2666">
    <path fill-rule="evenodd" fill="#006C35" fill-opacity="1"
        d="M 2485.761719 1849.46875 C 2492.441406 1842.792969 2495.730469 1839.351562 2505.410156 1833.703125 C 2522.039062 1839.070312 2524.128906 1841.941406 2531.808594 1855.128906 C 2524.21875 1881.992188 2515.660156 1868.597656 2518.410156 1892.125 C 2605.78125 1897.367188 2733.660156 1875.214844 2747.539062 1917.746094 C 2756.679688 1945.753906 2747.738281 1974.539062 2734.28125 1988.371094 C 2697.480469 1994.164062 2708.859375 1983.535156 2680.429688 1981.078125 C 2649.75 1978.429688 2640.101562 1982.222656 2617.628906 1987.824219 C 2592.671875 1994.050781 2592.109375 1981.378906 2560.480469 1980.703125 C 2510.25 1979.628906 2536.980469 1987.789062 2505.410156 1997.503906 L 2483.398438 1976.597656 C 2495.011719 1951.425781 2498.101562 1966.90625 2500.390625 1938.488281 L 1535.410156 1938.488281 C 1478.640625 1938.496094 1362.660156 1941.4375 1309.519531 1926.203125 C 1299.121094 1923.222656 1289.5 1919.210938 1280.800781 1914.835938 C 1264.371094 1906.578125 1265.199219 1907.242188 1255.640625 1893.589844 L 2498.050781 1892.761719 C 2502.621094 1863.671875 2488.089844 1881.949219 2485.761719 1849.46875 Z M 2748.691406 1252.078125 C 2753.570312 1271.769531 2752.621094 1262.710938 2743.871094 1280.128906 C 2744.941406 1281.101562 2746.761719 1280.929688 2747.308594 1282.78125 C 2750.539062 1293.71875 2749.691406 1279.921875 2763.308594 1295.128906 C 2749.859375 1313.101562 2731.230469 1321.730469 2704.960938 1317.148438 C 2710.648438 1288.210938 2710.699219 1307.78125 2726.609375 1285.128906 C 2724.160156 1276.191406 2682.101562 1239.121094 2748.691406 1252.078125 Z M 2106.769531 1293.28125 L 2171.648438 1271.609375 C 2164.019531 1287.839844 2155 1293.070312 2134.890625 1304.761719 C 2117.628906 1314.789062 2104.21875 1316.058594 2084.289062 1311.148438 L 2084.71875 1267.011719 C 2069.839844 1270.929688 2074.378906 1273.128906 2062.171875 1266.859375 C 2077.011719 1257.03125 2088.78125 1246.078125 2108.328125 1247.179688 C 2108.191406 1270.460938 2098.738281 1268.71875 2106.769531 1293.28125 Z M 1050.410156 1268.96875 C 1076.96875 1264.011719 1053.519531 1262.140625 1080.988281 1249.789062 C 1082.191406 1281.058594 1076.910156 1285.328125 1062.609375 1305 C 981.808594 1311.390625 1033.5 1160.300781 1049.628906 1145.660156 C 1052.46875 1189.140625 1023.398438 1242.648438 1050.410156 1268.96875 Z M 1518.070312 1173.519531 L 1523.019531 1135.128906 C 1521.789062 1134.21875 1520.128906 1133.179688 1519.191406 1132.589844 L 1499.011719 1119.378906 L 1510.410156 1095.589844 C 1558.199219 1094.089844 1536.078125 1166.570312 1518.070312 1173.519531 Z M 2671.550781 1105.78125 L 2670.71875 1068.179688 C 2656.578125 1059.238281 2651.351562 1055.878906 2645.660156 1044.800781 L 2654.289062 1030.160156 C 2689.730469 1035.480469 2704.460938 1088.789062 2671.550781 1105.78125 Z M 1017.25 1074.410156 C 1033.550781 1051.269531 1106.53125 983.308594 1159.070312 990.039062 C 1158.800781 1016.488281 1153.601562 1012.808594 1130.371094 1020.148438 C 1082.929688 1035.140625 1047.550781 1062.691406 1017.25 1074.410156 Z M 2579.960938 1048.390625 C 2588.738281 1022.261719 2609.039062 1014.808594 2630.21875 999.859375 C 2661.089844 978.070312 2663 966.550781 2684.488281 961.089844 C 2691.070312 1000.078125 2669.640625 994.558594 2641.828125 1011.601562 C 2621.789062 1023.878906 2601.078125 1041.398438 2579.960938 1048.390625 Z M 1940.410156 947.648438 C 1955.460938 968.28125 1950.171875 983.988281 1941.230469 999.859375 C 1922.710938 1000.898438 1923.828125 999.121094 1908.359375 993.351562 C 1902.128906 1016.21875 1911.671875 1002.128906 1895.410156 1010.429688 C 1871.761719 1003.230469 1872.460938 987.308594 1875.570312 958.828125 C 1880.640625 966.101562 1873.75 953.101562 1881.539062 969.050781 C 1882.058594 970.121094 1882.460938 971.621094 1882.980469 972.710938 C 1883.5 973.78125 1883.820312 975.28125 1884.351562 976.300781 C 1890.71875 988.808594 1886 982.789062 1895.410156 989.328125 C 1907.96875 973.570312 1899.191406 969.53125 1910.648438 955.730469 C 1920.351562 980.089844 1916.78125 976.949219 1932.871094 984.46875 Z M 1757.53125 923.738281 C 1780.429688 987.378906 1805.929688 1025.558594 1819.800781 1106.171875 C 1833.109375 1183.519531 1841.300781 1241.269531 1916.679688 1254.730469 C 1909.121094 1199.378906 1937.230469 1181.109375 1976.429688 1167.171875 C 1970.820312 1159.929688 1969.058594 1155.160156 1950.890625 1149.640625 C 1940.78125 1146.570312 1927.539062 1145.019531 1915.628906 1144.140625 C 1888.300781 1142.109375 1860.160156 1146.179688 1838.800781 1135.128906 C 1840.230469 1051.921875 1930.539062 1058.769531 1992.941406 1027.660156 C 1973.5 994.339844 1991.578125 894.46875 2089.550781 950.859375 C 2179.75 1002.78125 2064.378906 1063.578125 2038.28125 1068.210938 C 2005.671875 1074 1953.128906 1091.011719 1929.191406 1109.71875 C 2005.140625 1114.019531 2071.839844 1109.589844 2145.578125 1106.480469 C 2164.75 1105.671875 2170.71875 1105.96875 2175.101562 1110.878906 C 2179.449219 1120 2172.390625 1139.699219 2164.421875 1149.039062 C 2147.171875 1169.25 1952.050781 1184.101562 1947.960938 1230.890625 C 1945.289062 1261.558594 1992.171875 1268.300781 2019.160156 1281.300781 C 2021.96875 1320.71875 2010.621094 1328.300781 1973.441406 1323.179688 C 1893.71875 1312.199219 1836.71875 1280.429688 1804.179688 1206.320312 L 1755.601562 1260.199219 C 1740.039062 1277.351562 1719.769531 1297.269531 1696.089844 1310.898438 C 1671.328125 1325.171875 1640.941406 1336.839844 1607.621094 1327.738281 C 1573.578125 1318.449219 1573.71875 1296.511719 1560.410156 1265.539062 C 1512.109375 1273.878906 1448.628906 1312.988281 1389.601562 1316.921875 C 1396.589844 1306.300781 1387.300781 1314.738281 1400.460938 1305.140625 L 1514.371094 1244.210938 C 1595.128906 1196.558594 1554.828125 1201.5 1589.171875 1144.269531 L 1602.289062 1129.480469 L 1601.691406 1184.648438 C 1622.78125 1176.390625 1679.339844 1130.460938 1686.949219 1111.460938 C 1697.539062 1085.011719 1676.71875 1050.238281 1661.039062 1024.601562 C 1652.621094 1010.839844 1649.589844 1011.699219 1641.171875 1000.128906 C 1643.078125 980.539062 1649.460938 964.539062 1665.410156 952.960938 C 1683.5 961.328125 1699.039062 982.558594 1709.808594 1000.128906 C 1710.300781 1036.769531 1694.039062 993.511719 1705.96875 1033.878906 C 1718.210938 1075.351562 1730.289062 1108.199219 1702.398438 1152.039062 C 1687.628906 1175.25 1673.578125 1187.761719 1653.730469 1203.550781 L 1593.941406 1250.128906 C 1607.140625 1328.320312 1731.46875 1255.730469 1779.300781 1168.980469 C 1811.488281 1110.570312 1681.671875 963.398438 1757.53125 923.738281 Z M 2617.5 910.878906 C 2618.398438 871.570312 2603.839844 844.289062 2642.621094 832.628906 L 2654.390625 860.128906 C 2625.320312 875.238281 2632.699219 829.769531 2624.078125 943.800781 C 2609.289062 938.621094 2596.761719 907.460938 2590.410156 893.941406 L 2566.820312 894.390625 C 2566.398438 873.289062 2563.769531 871.449219 2572.089844 857.140625 C 2595.628906 858.898438 2589.671875 870.378906 2604.378906 896.148438 C 2610.058594 906.089844 2603.621094 896.570312 2611.039062 905.53125 Z M 2315.410156 844.78125 C 2325.519531 832.511719 2322.101562 825.96875 2333.601562 816.929688 C 2347.039062 883.910156 2316.21875 854.488281 2298.46875 858.488281 C 2298.390625 858.511719 2266.308594 882.539062 2276.238281 829.890625 L 2290.238281 848.269531 L 2298.699219 824.429688 Z M 1603.980469 875.78125 C 1596.980469 900.949219 1564.769531 933 1545.589844 904.988281 C 1526.851562 877.621094 1558.539062 843.691406 1575.28125 834.570312 C 1568.910156 856.980469 1548.429688 870.871094 1563.648438 892.511719 C 1588.601562 896.339844 1582.511719 883.5 1603.980469 875.78125 Z M 2501.898438 1233.289062 C 2500.03125 1208.851562 2507.851562 1186.019531 2505.351562 1155.070312 L 2457.339844 803.460938 C 2449.441406 754.648438 2426.121094 706.480469 2471.710938 681.171875 L 2518.960938 794.808594 L 2488.46875 787.230469 C 2493.371094 866.441406 2505.808594 946.949219 2515.308594 1024.910156 C 2524.28125 1098.570312 2551.898438 1179.070312 2501.898438 1233.289062 Z M 2890.839844 833.941406 C 2885.75 815.28125 2885.359375 789.058594 2876.648438 768.96875 C 2865.28125 742.710938 2852.78125 739.671875 2875.929688 716.941406 C 2900.238281 735.148438 2912.960938 806.378906 2890.839844 833.941406 Z M 2385.410156 686.550781 C 2393.421875 694.691406 2424.980469 766.71875 2411.628906 780.46875 C 2399.058594 793.421875 2394.351562 767.480469 2401.820312 853.648438 C 2409.890625 946.648438 2438.851562 1131.621094 2411.738281 1216.480469 C 2399.960938 1253.339844 2352.128906 1308.78125 2321.601562 1321.429688 C 2294.109375 1332.820312 2260.75 1334.148438 2230.378906 1330.828125 C 2235.859375 1323.148438 2229.328125 1326.171875 2244.320312 1318.878906 C 2258.429688 1312.03125 2268.769531 1315.441406 2303.671875 1293.351562 C 2416.179688 1222.148438 2393.871094 1155.21875 2388.480469 1057.601562 C 2384.75 990.21875 2370.921875 824.871094 2357.378906 758.46875 C 2353.839844 741.101562 2336.621094 716.308594 2385.410156 686.550781 Z M 2240.53125 914.988281 C 2278.789062 970.46875 2379.449219 1120.628906 2369.128906 1183.519531 C 2356.410156 1169.800781 2346.398438 1145.050781 2336.199219 1124.488281 C 2312.941406 1077.609375 2255.371094 988.140625 2226.421875 950.121094 C 2227.101562 1074.019531 2266.140625 1143.519531 2216.960938 1261.308594 C 2208.78125 1251.988281 2204.121094 1278.898438 2214.890625 1219.710938 C 2217.601562 1204.828125 2217.898438 1190.25 2217.699219 1175.128906 C 2216.828125 1108.808594 2197.539062 988.738281 2188.390625 921.761719 C 2183.058594 882.800781 2182.429688 880.21875 2161.78125 853.71875 C 2146.621094 834.269531 2134.75 816.921875 2120.769531 799.738281 C 2066.71875 733.320312 2054.121094 741.308594 2062.460938 677.140625 C 2087.429688 674.269531 2149.660156 736.070312 2157.878906 755.128906 L 2136.210938 765.03125 C 2151.429688 782.808594 2164.148438 803.28125 2179.371094 820.21875 C 2175.46875 743.808594 2145.660156 699.03125 2192.730469 689.730469 C 2203.421875 708.480469 2232.21875 771.800781 2233.601562 799.398438 C 2220.671875 806.71875 2225.898438 800.601562 2217.128906 805.128906 C 2218.109375 863.378906 2213.109375 875.230469 2240.53125 914.988281 Z M 2808.988281 930.148438 C 2804.019531 886.089844 2794.710938 841.640625 2790.050781 795.320312 C 2785.539062 750.46875 2773.039062 689.710938 2810.410156 675.789062 C 2826.121094 692.308594 2844.359375 764.261719 2844.078125 771.03125 C 2842.921875 798.621094 2837.828125 770.671875 2831.570312 795.980469 C 2827.941406 810.691406 2841.050781 923.738281 2843.140625 947.820312 C 2847.820312 1001.511719 2856.410156 995.449219 2901.160156 1059.378906 C 2923.21875 1090.878906 2954.140625 1126.441406 2943.398438 1178.121094 C 2930.300781 1165.519531 2912.761719 1134.710938 2899.101562 1116.460938 C 2881.421875 1092.859375 2870.828125 1076.570312 2852.738281 1057.191406 C 2853.410156 1091.808594 2863.679688 1159.460938 2840.410156 1182.101562 C 2836.128906 1173.550781 2835.589844 1061.300781 2826.5 1029.128906 C 2820.308594 1007.21875 2772.039062 951.269531 2757.210938 931.558594 C 2754.640625 1024.960938 2809.988281 1242.660156 2695.449219 1236.890625 C 2644.800781 1234.339844 2630.121094 1198.21875 2615.410156 1187.839844 C 2579.429688 1211.078125 2560.109375 1291.660156 2526.628906 1319.621094 C 2526.230469 1319.761719 2429.710938 1317.839844 2454.210938 1194.199219 C 2455.808594 1186.148438 2458.410156 1172.210938 2460.460938 1165.269531 L 2472.039062 1144.28125 C 2478.28125 1190.921875 2469.921875 1245.609375 2505.410156 1271.359375 C 2530.660156 1269.429688 2530.191406 1260.210938 2540.648438 1240.421875 C 2629.261719 1072.730469 2613.410156 1131.308594 2665.609375 1174.980469 C 2693.738281 1198.511719 2718.011719 1183.28125 2725.449219 1155.371094 C 2735.691406 1116.988281 2725.78125 1016.421875 2722.410156 971.960938 C 2714.910156 872.910156 2725.570312 882.96875 2672.921875 822.671875 C 2608.75 749.160156 2609.570312 756.441406 2614.179688 684.089844 C 2620.558594 685.511719 2690.871094 731.71875 2686.609375 751.578125 L 2682.910156 761.140625 C 2682.738281 760.429688 2681.820312 763.269531 2681.660156 764.429688 L 2706.390625 791.96875 C 2704.851562 765.601562 2697.261719 741.441406 2696.238281 724.570312 C 2694.929688 702.851562 2704.339844 687.21875 2720.410156 680.210938 C 2727.339844 687.519531 2760.921875 756.679688 2754.589844 768.46875 C 2739.28125 797.011719 2748.691406 851.988281 2756.300781 864.378906 L 2782.179688 898.398438 C 2790.589844 909.289062 2799.519531 920.738281 2808.988281 930.148438 Z M 1245.21875 1179.949219 C 1274.988281 1170.539062 1351.589844 1125.710938 1346.570312 1076.171875 C 1308.121094 1084.238281 1299.820312 1095.578125 1259.5 1081.390625 C 1254.121094 1049.589844 1252.460938 994.289062 1285.320312 974.828125 C 1319.871094 954.359375 1352.25 1000.398438 1366.828125 1025.21875 L 1394.871094 1010.609375 L 1367.160156 746.429688 C 1362.949219 710.921875 1364.398438 697.378906 1394.429688 686.910156 C 1406.570312 704.210938 1414.519531 734.390625 1423.570312 757.058594 C 1448.210938 818.789062 1422.328125 798.628906 1410.621094 805.128906 L 1424.921875 990.050781 C 1446.238281 980.699219 1438.578125 973.851562 1459.988281 970.691406 C 1461.488281 982.320312 1460.78125 993.628906 1462.519531 1003.820312 C 1469.511719 1044.828125 1515.519531 1037.71875 1533.261719 968.519531 C 1544.191406 981.441406 1548.160156 1038.511719 1576.699219 1022.019531 C 1593.160156 1012.511719 1582.890625 986.800781 1581.878906 971.351562 C 1595.558594 961.808594 1588.359375 960.960938 1601.359375 964.261719 C 1629.558594 1021.191406 1583.210938 1091.460938 1530.410156 1034.378906 C 1493.089844 1054.441406 1477.050781 1081.429688 1432.410156 1037.289062 C 1416.101562 1095.699219 1452.761719 1162.328125 1406.640625 1231.390625 C 1358.140625 1304 1155.289062 1364.300781 1114.449219 1271.199219 C 1097.460938 1232.460938 1089.550781 1120.890625 1124.019531 1096.03125 C 1128.648438 1147.511719 1108.121094 1198.140625 1140.070312 1240.460938 C 1189.179688 1305.519531 1334.730469 1246.730469 1374.839844 1199.519531 C 1401.851562 1167.730469 1400.441406 1105.589844 1397.269531 1055.660156 C 1349.269531 1070.511719 1406.378906 1095.761719 1350.96875 1165.800781 C 1336.738281 1183.789062 1287.898438 1214.320312 1255.460938 1225.070312 C 1132.070312 1265.980469 1126.46875 1116.171875 1153.230469 1072.558594 C 1159.679688 1062.050781 1154.089844 1069.988281 1161.828125 1063.191406 C 1157.859375 1130.96875 1165.078125 1205.25 1245.21875 1179.949219 Z M 1575.609375 760.128906 C 1567.429688 744.140625 1557.261719 722.609375 1570.699219 700.460938 C 1580.640625 684.078125 1595.769531 679.949219 1617.449219 684.011719 C 1628.078125 710.390625 1616.019531 740.378906 1613.160156 767.878906 C 1582.648438 779.921875 1551.730469 842.519531 1468.898438 856.710938 C 1475.800781 842.511719 1478.878906 842.769531 1496.570312 831.378906 C 1523.921875 813.789062 1559.210938 787.601562 1575.609375 760.128906 Z M 1081.050781 795.960938 C 1086.441406 780.089844 1095.941406 760.71875 1104.890625 749.550781 C 1109.03125 744.390625 1116.539062 736.03125 1124.101562 733.859375 C 1182.25 717.089844 1080.980469 878.960938 1177.460938 896.890625 C 1175.441406 862.199219 1173.261719 810.730469 1167.328125 778.320312 C 1160 738.179688 1141.128906 708.03125 1170.410156 682.03125 C 1183.859375 690.421875 1190.46875 704.390625 1198.28125 722.628906 C 1213.058594 757.171875 1199.089844 749.929688 1194.828125 770.859375 L 1212.488281 891.449219 C 1233.828125 858.101562 1235.25 855.621094 1224.121094 806.078125 C 1217.261719 775.511719 1208.699219 747.710938 1226.128906 722.078125 C 1268.191406 753.871094 1245.539062 770.589844 1255.621094 824.789062 C 1262.359375 861.089844 1275.871094 903.960938 1320.410156 885.300781 C 1336.730469 852.238281 1295.351562 782.871094 1291.800781 749.160156 L 1315.410156 724.46875 C 1332.109375 733 1345.148438 748.679688 1352.828125 770.128906 C 1332.980469 808.648438 1338.960938 769.628906 1352.871094 837.96875 C 1366.308594 903.960938 1335.230469 944.859375 1286.730469 938.460938 C 1258.769531 934.78125 1258.101562 918.921875 1245.410156 894.929688 C 1234.109375 901.171875 1216.089844 927.070312 1209.398438 935.128906 C 1209.839844 1002.578125 1231.078125 1073.730469 1206.46875 1130.46875 L 1192.460938 1042.570312 C 1181.191406 948.640625 1193.421875 959.699219 1157.359375 948.019531 C 1081.519531 923.449219 1126.171875 831.328125 1110.410156 796.070312 C 1074.261719 834.03125 1099.730469 925.769531 1045.410156 943.058594 C 1008.660156 942.53125 982.730469 790.910156 1015.851562 759.089844 C 1018.210938 806.808594 1014.921875 877.789062 1050.410156 897.878906 C 1076.210938 881.570312 1069.269531 830.671875 1081.050781 795.960938 Z M 2951.390625 675.148438 C 2961.839844 696.898438 2989.289062 744.960938 2991.460938 770.128906 L 2975.769531 775.128906 C 2976.449219 890.070312 3006.011719 1004.199219 2999.558594 1120.351562 C 2996.488281 1175.539062 2983.179688 1225.140625 2954.480469 1259.160156 C 2934.828125 1282.449219 2872.96875 1323.550781 2822.410156 1313.558594 C 2903.378906 1227.179688 2978.988281 1265.96875 2959.738281 1035.429688 L 2926.890625 749.519531 C 2921.609375 710.921875 2916.828125 689.898438 2951.390625 675.148438 Z M 1655.089844 732.421875 C 1666.929688 752.71875 1651.488281 768.121094 1659.660156 816.371094 C 1664.851562 847.011719 1672.71875 867.511719 1700.671875 869.339844 C 1715.121094 848.050781 1726.800781 807.960938 1741.359375 780.949219 C 1764.859375 737.351562 1776.699219 707.550781 1800.25 720.128906 C 1812.589844 739.921875 1797.128906 813.941406 1799.171875 845.410156 C 1802.609375 898.460938 1839.441406 899.019531 1875.480469 870.300781 C 1946.011719 814.109375 1851.949219 710.738281 1904.449219 667.308594 C 1929.46875 692.289062 1927.289062 748.101562 1932.179688 789.351562 C 1936.910156 829.308594 1953.050781 879.511719 1994.03125 873.398438 C 2029.230469 831.578125 1984.140625 759.46875 1974.460938 715.128906 C 1979.960938 704.308594 1992.558594 686.308594 2000.410156 678.828125 C 2025.101562 687.019531 2046.988281 714.980469 2049.121094 749.460938 C 2027.160156 750.390625 2038.890625 748.859375 2020.878906 740.621094 C 2030.289062 790.21875 2054.320312 834.53125 2026.449219 886.308594 C 1995.550781 943.71875 1942.148438 898.078125 1920.410156 875.21875 L 1898.199219 897.941406 C 1876.03125 919.871094 1842.101562 940.800781 1808.71875 926.921875 C 1766.148438 909.21875 1773.101562 847.988281 1773.820312 797.128906 C 1754.800781 809.019531 1756.179688 820.648438 1742.789062 857.488281 C 1734.359375 880.691406 1727.730469 895.960938 1717.058594 910.460938 C 1689.648438 913.140625 1682.078125 903.160156 1668.421875 887.160156 C 1624.160156 835.339844 1644.148438 779.519531 1655.089844 732.421875 Z M 2276.921875 682.171875 C 2305.171875 695.53125 2311.511719 739.101562 2305.140625 764.390625 C 2300.941406 781.089844 2294.261719 782.539062 2289.230469 785.820312 C 2291.21875 709.929688 2289.03125 745.890625 2263.96875 705.128906 C 2269.019531 689.429688 2269.199219 691.460938 2276.921875 682.171875 Z M 1833.03125 688.128906 C 1870.460938 697.851562 1866.621094 770.289062 1850.210938 791.410156 C 1850.078125 770.628906 1851.710938 749.769531 1844.25 731.410156 C 1835.308594 709.441406 1825.480469 712.179688 1833.03125 688.128906 Z M 1246.5 718.921875 C 1233.191406 692.839844 1234.980469 689.761719 1246.828125 679.621094 L 1255.410156 706.101562 C 1276.03125 702.980469 1268.679688 707.320312 1275.929688 684.199219 L 1289.691406 709.191406 C 1314 700.101562 1288.699219 706.320312 1309.179688 694.800781 C 1309.300781 715.519531 1310.910156 711.75 1298.839844 722.980469 C 1276.851562 721.570312 1291.941406 716.839844 1276.359375 717.21875 C 1263.640625 717.53125 1272.25 724.78125 1246.5 718.921875 Z M 1050.851562 695.128906 C 1056.449219 682.089844 1063.070312 674.800781 1078.800781 672.28125 C 1103.71875 697.589844 1081.199219 718.398438 1072.71875 742.921875 L 1076.371094 700.128906 C 1065.710938 694.960938 1060.71875 701.191406 1050.851562 695.128906 Z M 0.410156 2665.128906 L 4000.410156 2665.128906 L 4000.410156 0.128906 L 0.410156 0.128906 L 0.410156 2665.128906 " />
    <path fill-rule="evenodd" fill="rgb(99.609375%, 99.609375%, 99.609375%)" fill-opacity="1"
        d="M 2025.429688 984.890625 C 2046.359375 986.449219 2056.058594 992.261719 2070.480469 1005.128906 C 2068.160156 1007.039062 2068.460938 1008.371094 2061.789062 1011.378906 C 2059.519531 1012.398438 2051.878906 1014.53125 2049.921875 1014.859375 C 2033.429688 1017.648438 2041.179688 1017.039062 2027.460938 1014.011719 Z M 1950.890625 1149.640625 C 1969.058594 1155.160156 1970.820312 1159.929688 1976.429688 1167.171875 C 1937.230469 1181.109375 1909.121094 1199.378906 1916.679688 1254.730469 C 1841.300781 1241.269531 1833.109375 1183.519531 1819.800781 1106.171875 C 1805.929688 1025.558594 1780.429688 987.378906 1757.53125 923.738281 C 1681.671875 963.398438 1811.488281 1110.570312 1779.300781 1168.980469 C 1731.46875 1255.730469 1607.140625 1328.320312 1593.941406 1250.128906 L 1653.730469 1203.550781 C 1673.578125 1187.761719 1687.628906 1175.25 1702.398438 1152.039062 C 1730.289062 1108.199219 1718.210938 1075.351562 1705.96875 1033.878906 C 1694.039062 993.511719 1710.300781 1036.769531 1709.808594 1000.128906 C 1699.039062 982.558594 1683.5 961.328125 1665.410156 952.960938 C 1649.460938 964.539062 1643.078125 980.539062 1641.171875 1000.128906 C 1649.589844 1011.699219 1652.621094 1010.839844 1661.039062 1024.601562 C 1676.71875 1050.238281 1697.539062 1085.011719 1686.949219 1111.460938 C 1679.339844 1130.460938 1622.78125 1176.390625 1601.691406 1184.648438 L 1602.289062 1129.480469 L 1589.171875 1144.269531 C 1554.828125 1201.5 1595.128906 1196.558594 1514.371094 1244.210938 L 1400.460938 1305.140625 C 1387.300781 1314.738281 1396.589844 1306.300781 1389.601562 1316.921875 C 1448.628906 1312.988281 1512.109375 1273.878906 1560.410156 1265.539062 C 1573.71875 1296.511719 1573.578125 1318.449219 1607.621094 1327.738281 C 1640.941406 1336.839844 1671.328125 1325.171875 1696.089844 1310.898438 C 1719.769531 1297.269531 1740.039062 1277.351562 1755.601562 1260.199219 L 1804.179688 1206.320312 C 1836.71875 1280.429688 1893.71875 1312.199219 1973.441406 1323.179688 C 2010.621094 1328.300781 2021.96875 1320.71875 2019.160156 1281.300781 C 1992.171875 1268.300781 1945.289062 1261.558594 1947.960938 1230.890625 C 1952.050781 1184.101562 2147.171875 1169.25 2164.421875 1149.039062 C 2172.390625 1139.699219 2179.449219 1120 2175.101562 1110.878906 C 2170.71875 1105.96875 2164.75 1105.671875 2145.578125 1106.480469 C 2071.839844 1109.589844 2005.140625 1114.019531 1929.191406 1109.71875 C 1953.128906 1091.011719 2005.671875 1074 2038.28125 1068.210938 C 2064.378906 1063.578125 2179.75 1002.78125 2089.550781 950.859375 C 1991.578125 894.46875 1973.5 994.339844 1992.941406 1027.660156 C 1930.539062 1058.769531 1840.230469 1051.921875 1838.800781 1135.128906 C 1860.160156 1146.179688 1888.300781 1142.109375 1915.628906 1144.140625 C 1927.539062 1145.019531 1940.78125 1146.570312 1950.890625 1149.640625 " />
    <path fill-rule="evenodd" fill="rgb(99.609375%, 99.609375%, 99.609375%)" fill-opacity="1"
        d="M 2516.648438 1940.109375 L 2685.410156 1938.386719 L 2684.621094 1966.769531 C 2633.898438 1968.0625 2607.621094 1958.027344 2592.578125 1961.769531 C 2556.589844 1970.730469 2521.511719 1978.015625 2516.648438 1940.109375 Z M 2518.410156 1892.125 C 2515.660156 1868.597656 2524.21875 1881.992188 2531.808594 1855.128906 C 2524.128906 1841.941406 2522.039062 1839.070312 2505.410156 1833.703125 C 2495.730469 1839.351562 2492.441406 1842.792969 2485.761719 1849.46875 C 2488.089844 1881.949219 2502.621094 1863.671875 2498.050781 1892.761719 L 1255.640625 1893.589844 C 1265.199219 1907.242188 1264.371094 1906.578125 1280.800781 1914.835938 C 1289.5 1919.210938 1299.121094 1923.222656 1309.519531 1926.203125 C 1362.660156 1941.4375 1478.640625 1938.496094 1535.410156 1938.488281 L 2500.390625 1938.488281 C 2498.101562 1966.90625 2495.011719 1951.425781 2483.398438 1976.597656 L 2505.410156 1997.503906 C 2536.980469 1987.789062 2510.25 1979.628906 2560.480469 1980.703125 C 2592.109375 1981.378906 2592.671875 1994.050781 2617.628906 1987.824219 C 2640.101562 1982.222656 2649.75 1978.429688 2680.429688 1981.078125 C 2708.859375 1983.535156 2697.480469 1994.164062 2734.28125 1988.371094 C 2747.738281 1974.539062 2756.679688 1945.753906 2747.539062 1917.746094 C 2733.660156 1875.214844 2605.78125 1897.367188 2518.410156 1892.125 " />
    <path fill-rule="evenodd" fill="rgb(99.609375%, 99.609375%, 99.609375%)" fill-opacity="1"
        d="M 1329.398438 1034.351562 C 1318.171875 1044.359375 1310.511719 1047.421875 1295.058594 1041.011719 C 1288.929688 1030.378906 1290.03125 1030.730469 1291.289062 1014.921875 C 1316.058594 1013.171875 1315.128906 1021.019531 1329.398438 1034.351562 Z M 1394.871094 1010.609375 L 1366.828125 1025.21875 C 1352.25 1000.398438 1319.871094 954.359375 1285.320312 974.828125 C 1252.460938 994.289062 1254.121094 1049.589844 1259.5 1081.390625 C 1299.820312 1095.578125 1308.121094 1084.238281 1346.570312 1076.171875 C 1351.589844 1125.710938 1274.988281 1170.539062 1245.21875 1179.949219 C 1165.078125 1205.25 1157.859375 1130.96875 1161.828125 1063.191406 C 1154.089844 1069.988281 1159.679688 1062.050781 1153.230469 1072.558594 C 1126.46875 1116.171875 1132.070312 1265.980469 1255.460938 1225.070312 C 1287.898438 1214.320312 1336.738281 1183.789062 1350.96875 1165.800781 C 1406.378906 1095.761719 1349.269531 1070.511719 1397.269531 1055.660156 C 1400.441406 1105.589844 1401.851562 1167.730469 1374.839844 1199.519531 C 1334.730469 1246.730469 1189.179688 1305.519531 1140.070312 1240.460938 C 1108.121094 1198.140625 1128.648438 1147.511719 1124.019531 1096.03125 C 1089.550781 1120.890625 1097.460938 1232.460938 1114.449219 1271.199219 C 1155.289062 1364.300781 1358.140625 1304 1406.640625 1231.390625 C 1452.761719 1162.328125 1416.101562 1095.699219 1432.410156 1037.289062 C 1477.050781 1081.429688 1493.089844 1054.441406 1530.410156 1034.378906 C 1583.210938 1091.460938 1629.558594 1021.191406 1601.359375 964.261719 C 1588.359375 960.960938 1595.558594 961.808594 1581.878906 971.351562 C 1582.890625 986.800781 1593.160156 1012.511719 1576.699219 1022.019531 C 1548.160156 1038.511719 1544.191406 981.441406 1533.261719 968.519531 C 1515.519531 1037.71875 1469.511719 1044.828125 1462.519531 1003.820312 C 1460.78125 993.628906 1461.488281 982.320312 1459.988281 970.691406 C 1438.578125 973.851562 1446.238281 980.699219 1424.921875 990.050781 L 1410.621094 805.128906 C 1422.328125 798.628906 1448.210938 818.789062 1423.570312 757.058594 C 1414.519531 734.390625 1406.570312 704.210938 1394.429688 686.910156 C 1364.398438 697.378906 1362.949219 710.921875 1367.160156 746.429688 L 1394.871094 1010.609375 " />
    <path fill-rule="evenodd" fill="rgb(99.609375%, 99.609375%, 99.609375%)" fill-opacity="1"
        d="M 2808.988281 930.148438 C 2799.519531 920.738281 2790.589844 909.289062 2782.179688 898.398438 L 2756.300781 864.378906 C 2748.691406 851.988281 2739.28125 797.011719 2754.589844 768.46875 C 2760.921875 756.679688 2727.339844 687.519531 2720.410156 680.210938 C 2704.339844 687.21875 2694.929688 702.851562 2696.238281 724.570312 C 2697.261719 741.441406 2704.851562 765.601562 2706.390625 791.96875 L 2681.660156 764.429688 C 2681.820312 763.269531 2682.738281 760.429688 2682.910156 761.140625 L 2686.609375 751.578125 C 2690.871094 731.71875 2620.558594 685.511719 2614.179688 684.089844 C 2609.570312 756.441406 2608.75 749.160156 2672.921875 822.671875 C 2725.570312 882.96875 2714.910156 872.910156 2722.410156 971.960938 C 2725.78125 1016.421875 2735.691406 1116.988281 2725.449219 1155.371094 C 2718.011719 1183.28125 2693.738281 1198.511719 2665.609375 1174.980469 C 2613.410156 1131.308594 2629.261719 1072.730469 2540.648438 1240.421875 C 2530.191406 1260.210938 2530.660156 1269.429688 2505.410156 1271.359375 C 2469.921875 1245.609375 2478.28125 1190.921875 2472.039062 1144.28125 L 2460.460938 1165.269531 C 2458.410156 1172.210938 2455.808594 1186.148438 2454.210938 1194.199219 C 2429.710938 1317.839844 2526.230469 1319.761719 2526.628906 1319.621094 C 2560.109375 1291.660156 2579.429688 1211.078125 2615.410156 1187.839844 C 2630.121094 1198.21875 2644.800781 1234.339844 2695.449219 1236.890625 C 2809.988281 1242.660156 2754.640625 1024.960938 2757.210938 931.558594 C 2772.039062 951.269531 2820.308594 1007.21875 2826.5 1029.128906 C 2835.589844 1061.300781 2836.128906 1173.550781 2840.410156 1182.101562 C 2863.679688 1159.460938 2853.410156 1091.808594 2852.738281 1057.191406 C 2870.828125 1076.570312 2881.421875 1092.859375 2899.101562 1116.460938 C 2912.761719 1134.710938 2930.300781 1165.519531 2943.398438 1178.121094 C 2954.140625 1126.441406 2923.21875 1090.878906 2901.160156 1059.378906 C 2856.410156 995.449219 2847.820312 1001.511719 2843.140625 947.820312 C 2841.050781 923.738281 2827.941406 810.691406 2831.570312 795.980469 C 2837.828125 770.671875 2842.921875 798.621094 2844.078125 771.03125 C 2844.359375 764.261719 2826.121094 692.308594 2810.410156 675.789062 C 2773.039062 689.710938 2785.539062 750.46875 2790.050781 795.320312 C 2794.710938 841.640625 2804.019531 886.089844 2808.988281 930.148438 " />
    <path fill-rule="evenodd" fill="rgb(99.609375%, 99.609375%, 99.609375%)" fill-opacity="1"
        d="M 1177.460938 896.890625 C 1080.980469 878.960938 1182.25 717.089844 1124.101562 733.859375 C 1116.539062 736.03125 1109.03125 744.390625 1104.890625 749.550781 C 1095.941406 760.71875 1086.441406 780.089844 1081.050781 795.960938 C 1069.269531 830.671875 1076.210938 881.570312 1050.410156 897.878906 C 1014.921875 877.789062 1018.210938 806.808594 1015.851562 759.089844 C 982.730469 790.910156 1008.660156 942.53125 1045.410156 943.058594 C 1099.730469 925.769531 1074.261719 834.03125 1110.410156 796.070312 C 1126.171875 831.328125 1081.519531 923.449219 1157.359375 948.019531 C 1193.421875 959.699219 1181.191406 948.640625 1192.460938 1042.570312 L 1206.46875 1130.46875 C 1231.078125 1073.730469 1209.839844 1002.578125 1209.398438 935.128906 C 1216.089844 927.070312 1234.109375 901.171875 1245.410156 894.929688 C 1258.101562 918.921875 1258.769531 934.78125 1286.730469 938.460938 C 1335.230469 944.859375 1366.308594 903.960938 1352.871094 837.96875 C 1338.960938 769.628906 1332.980469 808.648438 1352.828125 770.128906 C 1345.148438 748.679688 1332.109375 733 1315.410156 724.46875 L 1291.800781 749.160156 C 1295.351562 782.871094 1336.730469 852.238281 1320.410156 885.300781 C 1275.871094 903.960938 1262.359375 861.089844 1255.621094 824.789062 C 1245.539062 770.589844 1268.191406 753.871094 1226.128906 722.078125 C 1208.699219 747.710938 1217.261719 775.511719 1224.121094 806.078125 C 1235.25 855.621094 1233.828125 858.101562 1212.488281 891.449219 L 1194.828125 770.859375 C 1199.089844 749.929688 1213.058594 757.171875 1198.28125 722.628906 C 1190.46875 704.390625 1183.859375 690.421875 1170.410156 682.03125 C 1141.128906 708.03125 1160 738.179688 1167.328125 778.320312 C 1173.261719 810.730469 1175.441406 862.199219 1177.460938 896.890625 " />
    <path fill-rule="evenodd" fill="rgb(99.609375%, 99.609375%, 99.609375%)" fill-opacity="1"
        d="M 1800.25 720.128906 C 1776.699219 707.550781 1764.859375 737.351562 1741.359375 780.949219 C 1726.800781 807.960938 1715.121094 848.050781 1700.671875 869.339844 C 1672.71875 867.511719 1664.851562 847.011719 1659.660156 816.371094 C 1651.488281 768.121094 1666.929688 752.71875 1655.089844 732.421875 C 1644.148438 779.519531 1624.160156 835.339844 1668.421875 887.160156 C 1682.078125 903.160156 1689.648438 913.140625 1717.058594 910.460938 C 1727.730469 895.960938 1734.359375 880.691406 1742.789062 857.488281 C 1756.179688 820.648438 1754.800781 809.019531 1773.820312 797.128906 C 1773.101562 847.988281 1766.148438 909.21875 1808.71875 926.921875 C 1842.101562 940.800781 1876.03125 919.871094 1898.199219 897.941406 L 1920.410156 875.21875 C 1942.148438 898.078125 1995.550781 943.71875 2026.449219 886.308594 C 2054.320312 834.53125 2030.289062 790.21875 2020.878906 740.621094 C 2038.890625 748.859375 2027.160156 750.390625 2049.121094 749.460938 C 2046.988281 714.980469 2025.101562 687.019531 2000.410156 678.828125 C 1992.558594 686.308594 1979.960938 704.308594 1974.460938 715.128906 C 1984.140625 759.46875 2029.230469 831.578125 1994.03125 873.398438 C 1953.050781 879.511719 1936.910156 829.308594 1932.179688 789.351562 C 1927.289062 748.101562 1929.46875 692.289062 1904.449219 667.308594 C 1851.949219 710.738281 1946.011719 814.109375 1875.480469 870.300781 C 1839.441406 899.019531 1802.609375 898.460938 1799.171875 845.410156 C 1797.128906 813.941406 1812.589844 739.921875 1800.25 720.128906 " />
    <path fill-rule="evenodd" fill="rgb(99.609375%, 99.609375%, 99.609375%)" fill-opacity="1"
        d="M 2216.960938 1261.308594 C 2266.140625 1143.519531 2227.101562 1074.019531 2226.421875 950.121094 C 2255.371094 988.140625 2312.941406 1077.609375 2336.199219 1124.488281 C 2346.398438 1145.050781 2356.410156 1169.800781 2369.128906 1183.519531 C 2379.449219 1120.628906 2278.789062 970.46875 2240.53125 914.988281 C 2213.109375 875.230469 2218.109375 863.378906 2217.128906 805.128906 C 2225.898438 800.601562 2220.671875 806.71875 2233.601562 799.398438 C 2232.21875 771.800781 2203.421875 708.480469 2192.730469 689.730469 C 2145.660156 699.03125 2175.46875 743.808594 2179.371094 820.21875 C 2164.148438 803.28125 2151.429688 782.808594 2136.210938 765.03125 L 2157.878906 755.128906 C 2149.660156 736.070312 2087.429688 674.269531 2062.460938 677.140625 C 2054.121094 741.308594 2066.71875 733.320312 2120.769531 799.738281 C 2134.75 816.921875 2146.621094 834.269531 2161.78125 853.71875 C 2182.429688 880.21875 2183.058594 882.800781 2188.390625 921.761719 C 2197.539062 988.738281 2216.828125 1108.808594 2217.699219 1175.128906 C 2217.898438 1190.25 2217.601562 1204.828125 2214.890625 1219.710938 C 2204.121094 1278.898438 2208.78125 1251.988281 2216.960938 1261.308594 " />
    <path fill-rule="evenodd" fill="rgb(99.609375%, 99.609375%, 99.609375%)" fill-opacity="1"
        d="M 2822.410156 1313.558594 C 2872.96875 1323.550781 2934.828125 1282.449219 2954.480469 1259.160156 C 2983.179688 1225.140625 2996.488281 1175.539062 2999.558594 1120.351562 C 3006.011719 1004.199219 2976.449219 890.070312 2975.769531 775.128906 L 2991.460938 770.128906 C 2989.289062 744.960938 2961.839844 696.898438 2951.390625 675.148438 C 2916.828125 689.898438 2921.609375 710.921875 2926.890625 749.519531 L 2959.738281 1035.429688 C 2978.988281 1265.96875 2903.378906 1227.179688 2822.410156 1313.558594 " />
    <path fill-rule="evenodd" fill="rgb(99.609375%, 99.609375%, 99.609375%)" fill-opacity="1"
        d="M 2230.378906 1330.828125 C 2260.75 1334.148438 2294.109375 1332.820312 2321.601562 1321.429688 C 2352.128906 1308.78125 2399.960938 1253.339844 2411.738281 1216.480469 C 2438.851562 1131.621094 2409.890625 946.648438 2401.820312 853.648438 C 2394.351562 767.480469 2399.058594 793.421875 2411.628906 780.46875 C 2424.980469 766.71875 2393.421875 694.691406 2385.410156 686.550781 C 2336.621094 716.308594 2353.839844 741.101562 2357.378906 758.46875 C 2370.921875 824.871094 2384.75 990.21875 2388.480469 1057.601562 C 2393.871094 1155.21875 2416.179688 1222.148438 2303.671875 1293.351562 C 2268.769531 1315.441406 2258.429688 1312.03125 2244.320312 1318.878906 C 2229.328125 1326.171875 2235.859375 1323.148438 2230.378906 1330.828125 " />
    <path fill-rule="evenodd" fill="rgb(99.609375%, 99.609375%, 99.609375%)" fill-opacity="1"
        d="M 2501.898438 1233.289062 C 2551.898438 1179.070312 2524.28125 1098.570312 2515.308594 1024.910156 C 2505.808594 946.949219 2493.371094 866.441406 2488.46875 787.230469 L 2518.960938 794.808594 L 2471.710938 681.171875 C 2426.121094 706.480469 2449.441406 754.648438 2457.339844 803.460938 L 2505.351562 1155.070312 C 2507.851562 1186.019531 2500.03125 1208.851562 2501.898438 1233.289062 " />
    <path fill-rule="evenodd" fill="rgb(99.609375%, 99.609375%, 99.609375%)" fill-opacity="1"
        d="M 1575.609375 760.128906 C 1559.210938 787.601562 1523.921875 813.789062 1496.570312 831.378906 C 1478.878906 842.769531 1475.800781 842.511719 1468.898438 856.710938 C 1551.730469 842.519531 1582.648438 779.921875 1613.160156 767.878906 C 1616.019531 740.378906 1628.078125 710.390625 1617.449219 684.011719 C 1595.769531 679.949219 1580.640625 684.078125 1570.699219 700.460938 C 1557.261719 722.609375 1567.429688 744.140625 1575.609375 760.128906 " />
    <path fill-rule="evenodd" fill="#006C35" fill-opacity="1"
        d="M 1599.078125 705.378906 C 1594.089844 705.398438 1588.230469 711.109375 1586 718.148438 C 1583.769531 725.179688 1586.011719 730.871094 1591.011719 730.851562 C 1596.011719 730.828125 1601.859375 725.121094 1604.089844 718.078125 C 1606.320312 711.050781 1604.078125 705.359375 1599.078125 705.378906 " />
    <path fill-rule="evenodd" fill="#006C35" fill-opacity="1"
        d="M 2685.410156 1938.386719 L 2516.648438 1940.109375 C 2521.511719 1978.015625 2556.589844 1970.730469 2592.578125 1961.769531 C 2607.621094 1958.027344 2633.898438 1968.0625 2684.621094 1966.769531 L 2685.410156 1938.386719 " />
    <path fill-rule="evenodd" fill="rgb(99.609375%, 99.609375%, 99.609375%)" fill-opacity="1"
        d="M 1050.410156 1268.96875 C 1023.398438 1242.648438 1052.46875 1189.140625 1049.628906 1145.660156 C 1033.5 1160.300781 981.808594 1311.390625 1062.609375 1305 C 1076.910156 1285.328125 1082.191406 1281.058594 1080.988281 1249.789062 C 1053.519531 1262.140625 1076.96875 1264.011719 1050.410156 1268.96875 " />
    <path fill-rule="evenodd" fill="rgb(99.609375%, 99.609375%, 99.609375%)" fill-opacity="1"
        d="M 2617.5 910.878906 L 2611.039062 905.53125 C 2603.621094 896.570312 2610.058594 906.089844 2604.378906 896.148438 C 2589.671875 870.378906 2595.628906 858.898438 2572.089844 857.140625 C 2563.769531 871.449219 2566.398438 873.289062 2566.820312 894.390625 L 2590.410156 893.941406 C 2596.761719 907.460938 2609.289062 938.621094 2624.078125 943.800781 C 2632.699219 829.769531 2625.320312 875.238281 2654.390625 860.128906 L 2642.621094 832.628906 C 2603.839844 844.289062 2618.398438 871.570312 2617.5 910.878906 " />
    <path fill-rule="evenodd" fill="rgb(99.609375%, 99.609375%, 99.609375%)" fill-opacity="1"
        d="M 1017.25 1074.410156 C 1047.550781 1062.691406 1082.929688 1035.140625 1130.371094 1020.148438 C 1153.601562 1012.808594 1158.800781 1016.488281 1159.070312 990.039062 C 1106.53125 983.308594 1033.550781 1051.269531 1017.25 1074.410156 " />
    <path fill-rule="evenodd" fill="rgb(99.609375%, 99.609375%, 99.609375%)" fill-opacity="1"
        d="M 2106.769531 1293.28125 C 2098.738281 1268.71875 2108.191406 1270.460938 2108.328125 1247.179688 C 2088.78125 1246.078125 2077.011719 1257.03125 2062.171875 1266.859375 C 2074.378906 1273.128906 2069.839844 1270.929688 2084.71875 1267.011719 L 2084.289062 1311.148438 C 2104.21875 1316.058594 2117.628906 1314.789062 2134.890625 1304.761719 C 2155 1293.070312 2164.019531 1287.839844 2171.648438 1271.609375 L 2106.769531 1293.28125 " />
    <path fill-rule="evenodd" fill="rgb(99.609375%, 99.609375%, 99.609375%)" fill-opacity="1"
        d="M 2743.871094 1280.128906 C 2752.621094 1262.710938 2753.570312 1271.769531 2748.691406 1252.078125 C 2682.101562 1239.121094 2724.160156 1276.191406 2726.609375 1285.128906 C 2710.699219 1307.78125 2710.648438 1288.210938 2704.960938 1317.148438 C 2731.230469 1321.730469 2749.859375 1313.101562 2763.308594 1295.128906 C 2749.691406 1279.921875 2750.539062 1293.71875 2747.308594 1282.78125 C 2746.761719 1280.929688 2744.941406 1281.101562 2743.871094 1280.128906 " />
    <path fill-rule="evenodd" fill="rgb(99.609375%, 99.609375%, 99.609375%)" fill-opacity="1"
        d="M 2579.960938 1048.390625 C 2601.078125 1041.398438 2621.789062 1023.878906 2641.828125 1011.601562 C 2669.640625 994.558594 2691.070312 1000.078125 2684.488281 961.089844 C 2663 966.550781 2661.089844 978.070312 2630.21875 999.859375 C 2609.039062 1014.808594 2588.738281 1022.261719 2579.960938 1048.390625 " />
    <path fill-rule="evenodd" fill="rgb(99.609375%, 99.609375%, 99.609375%)" fill-opacity="1"
        d="M 2890.839844 833.941406 C 2912.960938 806.378906 2900.238281 735.148438 2875.929688 716.941406 C 2852.78125 739.671875 2865.28125 742.710938 2876.648438 768.96875 C 2885.359375 789.058594 2885.75 815.28125 2890.839844 833.941406 " />
    <path fill-rule="evenodd" fill="rgb(99.609375%, 99.609375%, 99.609375%)" fill-opacity="1"
        d="M 1932.871094 984.46875 C 1916.78125 976.949219 1920.351562 980.089844 1910.648438 955.730469 C 1899.191406 969.53125 1907.96875 973.570312 1895.410156 989.328125 C 1886 982.789062 1890.71875 988.808594 1884.351562 976.300781 C 1883.820312 975.28125 1883.5 973.78125 1882.980469 972.710938 C 1882.460938 971.621094 1882.058594 970.121094 1881.539062 969.050781 C 1873.75 953.101562 1880.640625 966.101562 1875.570312 958.828125 C 1872.460938 987.308594 1871.761719 1003.230469 1895.410156 1010.429688 C 1911.671875 1002.128906 1902.128906 1016.21875 1908.359375 993.351562 C 1923.828125 999.121094 1922.710938 1000.898438 1941.230469 999.859375 C 1950.171875 983.988281 1955.460938 968.28125 1940.410156 947.648438 L 1932.871094 984.46875 " />
    <path fill-rule="evenodd" fill="rgb(99.609375%, 99.609375%, 99.609375%)" fill-opacity="1"
        d="M 2263.96875 705.128906 C 2289.03125 745.890625 2291.21875 709.929688 2289.230469 785.820312 C 2294.261719 782.539062 2300.941406 781.089844 2305.140625 764.390625 C 2311.511719 739.101562 2305.171875 695.53125 2276.921875 682.171875 C 2269.199219 691.460938 2269.019531 689.429688 2263.96875 705.128906 " />
    <path fill-rule="evenodd" fill="rgb(99.609375%, 99.609375%, 99.609375%)" fill-opacity="1"
        d="M 1603.980469 875.78125 C 1582.511719 883.5 1588.601562 896.339844 1563.648438 892.511719 C 1548.429688 870.871094 1568.910156 856.980469 1575.28125 834.570312 C 1558.539062 843.691406 1526.851562 877.621094 1545.589844 904.988281 C 1564.769531 933 1596.980469 900.949219 1603.980469 875.78125 " />
    <path fill-rule="evenodd" fill="rgb(99.609375%, 99.609375%, 99.609375%)" fill-opacity="1"
        d="M 2315.410156 844.78125 L 2298.699219 824.429688 L 2290.238281 848.269531 L 2276.238281 829.890625 C 2266.308594 882.539062 2298.390625 858.511719 2298.46875 858.488281 C 2316.21875 854.488281 2347.039062 883.910156 2333.601562 816.929688 C 2322.101562 825.96875 2325.519531 832.511719 2315.410156 844.78125 " />
    <path fill-rule="evenodd" fill="rgb(99.609375%, 99.609375%, 99.609375%)" fill-opacity="1"
        d="M 1499.011719 1119.378906 L 1519.191406 1132.589844 C 1520.128906 1133.179688 1521.789062 1134.21875 1523.019531 1135.128906 L 1518.070312 1173.519531 C 1536.078125 1166.570312 1558.199219 1094.089844 1510.410156 1095.589844 L 1499.011719 1119.378906 " />
    <path fill-rule="evenodd" fill="rgb(99.609375%, 99.609375%, 99.609375%)" fill-opacity="1"
        d="M 2645.660156 1044.800781 C 2651.351562 1055.878906 2656.578125 1059.238281 2670.71875 1068.179688 L 2671.550781 1105.78125 C 2704.460938 1088.789062 2689.730469 1035.480469 2654.289062 1030.160156 L 2645.660156 1044.800781 " />
    <path fill-rule="evenodd" fill="rgb(99.609375%, 99.609375%, 99.609375%)" fill-opacity="1"
        d="M 1246.5 718.921875 C 1272.25 724.78125 1263.640625 717.53125 1276.359375 717.21875 C 1291.941406 716.839844 1276.851562 721.570312 1298.839844 722.980469 C 1310.910156 711.75 1309.300781 715.519531 1309.179688 694.800781 C 1288.699219 706.320312 1314 700.101562 1289.691406 709.191406 L 1275.929688 684.199219 C 1268.679688 707.320312 1276.03125 702.980469 1255.410156 706.101562 L 1246.828125 679.621094 C 1234.980469 689.761719 1233.191406 692.839844 1246.5 718.921875 " />
    <path fill-rule="evenodd" fill="rgb(99.609375%, 99.609375%, 99.609375%)" fill-opacity="1"
        d="M 1850.210938 791.410156 C 1866.621094 770.289062 1870.460938 697.851562 1833.03125 688.128906 C 1825.480469 712.179688 1835.308594 709.441406 1844.25 731.410156 C 1851.710938 749.769531 1850.078125 770.628906 1850.210938 791.410156 " />
    <path fill-rule="evenodd" fill="rgb(99.609375%, 99.609375%, 99.609375%)" fill-opacity="1"
        d="M 1050.851562 695.128906 C 1060.71875 701.191406 1065.710938 694.960938 1076.371094 700.128906 L 1072.71875 742.921875 C 1081.199219 718.398438 1103.71875 697.589844 1078.800781 672.28125 C 1063.070312 674.800781 1056.449219 682.089844 1050.851562 695.128906 " />
    <path fill-rule="evenodd" fill="#006C35" fill-opacity="1"
        d="M 2027.460938 1014.011719 C 2041.179688 1017.039062 2033.429688 1017.648438 2049.921875 1014.859375 C 2051.878906 1014.53125 2059.519531 1012.398438 2061.789062 1011.378906 C 2068.460938 1008.371094 2068.160156 1007.039062 2070.480469 1005.128906 C 2056.058594 992.261719 2046.359375 986.449219 2025.429688 984.890625 L 2027.460938 1014.011719 " />
    <path fill-rule="evenodd" fill="#006C35" fill-opacity="1"
        d="M 1295.058594 1041.011719 C 1310.511719 1047.421875 1318.171875 1044.359375 1329.398438 1034.351562 C 1315.128906 1021.019531 1316.058594 1013.171875 1291.289062 1014.921875 C 1290.03125 1030.730469 1288.929688 1030.378906 1295.058594 1041.011719 " />
</svg>